<?xml version="1.0" encoding="UTF-8"?>
<!DOCTYPE svg PUBLIC "-//W3C//DTD SVG 1.1//EN" "http://www.w3.org/Graphics/SVG/1.1/DTD/svg11.dtd">
<!-- Creator: CorelDRAW (Evaluation Version) -->
<svg xmlns="http://www.w3.org/2000/svg" xml:space="preserve" width="3.33333in" height="3.33333in" version="1.1" style="shape-rendering:geometricPrecision; text-rendering:geometricPrecision; image-rendering:optimizeQuality; fill-rule:evenodd; clip-rule:evenodd"
viewBox="0 0 3333.33 3333.33"
 xmlns:xlink="http://www.w3.org/1999/xlink"
 xmlns:xodm="http://www.corel.com/coreldraw/odm/2003">
 <defs>
  <style type="text/css">
   <![CDATA[
    .str0 {stroke:blue;stroke-width:10.41;stroke-linejoin:round;stroke-miterlimit:2.61313}
    .fil1 {fill:url(#id0)}
    .fil2 {fill:url(#id1)}
    .fil0 {fill:url(#id2)}
   ]]>
  </style>
  <linearGradient id="id0" gradientUnits="userSpaceOnUse" x1="1560.16" y1="1004.16" x2="1977.67" y2="1904.41">
   <stop offset="0" style="stop-opacity:1; stop-color:#0C3080"/>
   <stop offset="0.658824" style="stop-opacity:1; stop-color:#1343AD"/>
   <stop offset="1" style="stop-opacity:1; stop-color:#1A56DB"/>
  </linearGradient>
  <linearGradient id="id1" gradientUnits="userSpaceOnUse" x1="2604.16" y1="734.7" x2="1528.23" y2="662.5">
   <stop offset="0" style="stop-opacity:1; stop-color:#0C3080"/>
   <stop offset="0.619608" style="stop-opacity:1; stop-color:#1343AD"/>
   <stop offset="1" style="stop-opacity:1; stop-color:#1A56DB"/>
  </linearGradient>
  <linearGradient id="id2" gradientUnits="userSpaceOnUse" x1="2060.68" y1="2612.35" x2="836.24" y2="3013.17">
   <stop offset="0" style="stop-opacity:1; stop-color:#07225C"/>
   <stop offset="0.380392" style="stop-opacity:1; stop-color:#103C9B"/>
   <stop offset="1" style="stop-opacity:1; stop-color:#1A56DB"/>
  </linearGradient>
 </defs>
 <g id="Layer_x0020_1">
  <metadata id="CorelCorpID_0Corel-Layer"/>
  <path class="fil0" d="M1168.78 2254.07c-149.81,-160.45 -152.05,-183.74 -242.9,-360.91 -68.33,-133.24 -27.69,-246.7 -214.48,-232.85 -111.55,8.28 -255.11,151.39 -215.24,246.98l65.43 156.89c122.7,300.56 350.76,526.7 624.82,653.77 85.35,41.31 175.11,72.08 267.52,91.87 139.43,29.85 284.88,34.67 430.26,12.88 102.52,-15.36 205.35,-41.25 305.82,-82.26 229.62,-93.74 378.52,-177.02 511.97,-364.76 26.01,-129.47 59.55,-225.48 -249.31,-326.32 -86.08,161.46 -182.2,262.19 -355.85,338.03 -12.46,5.45 -31.89,13.22 -45.04,18.59 -68.88,28.11 -124.58,42.95 -193.02,49.41 -250.54,23.62 -496.93,-50.26 -689.97,-201.29z"/>
  <path class="fil1" d="M877.14 1604.43c53.15,33.67 117.87,67.84 177.83,95.62 59.96,27.78 115.17,49.16 180.33,70.98 65.16,21.83 140.26,44.1 191.85,58.89 51.59,14.81 79.65,22.14 145.02,33.29 65.36,11.17 168,26.15 240.25,36.38 72.24,10.24 114.09,15.73 175.65,21.56 61.57,5.84 142.85,12.03 214.48,16.28 71.63,4.24 133.59,6.55 178.55,10.58 44.96,4.04 72.91,9.81 100.32,16.37 27.4,6.56 54.28,13.89 80.02,22.61 25.73,8.71 50.35,18.82 74.23,30.36 23.9,11.56 47.06,24.53 67.79,37.94 20.72,13.41 38.99,27.26 55.59,44.45 16.59,17.2 31.53,37.77 40.71,59.06 9.18,21.3 12.61,43.35 12.06,64.32 -0.54,20.97 -5.07,40.87 4,25.31 9.07,-15.56 31.74,-66.59 50.98,-118.86 19.26,-52.27 35.08,-105.8 46.99,-156.08 11.9,-50.3 19.9,-97.35 25.3,-142.5 5.39,-45.15 8.19,-88.38 8.93,-149.65 0.75,-61.26 -0.55,-140.57 -4.25,-195.19 -3.7,-54.63 -9.79,-84.56 -14.66,-106.12 -4.87,-21.56 -8.52,-34.72 -11.43,-37.58 -2.91,-2.85 -5.09,4.64 -9.06,17.77 -3.97,13.15 -9.72,31.94 -17.62,47.83 -7.89,15.89 -17.9,28.86 -31.7,41.91 -13.8,13.06 -31.37,26.18 -58.05,39.58 -26.68,13.39 -62.47,27.06 -102.89,38.29 -40.41,11.22 -85.43,20.02 -139.96,25 -54.5,4.98 -118.5,6.16 -224.71,0.77 -106.2,-5.38 -254.63,-17.32 -401.87,-36.46 -147.25,-19.15 -293.32,-45.48 -396.1,-67.42 -102.8,-21.93 -162.31,-39.46 -230.83,-66.55 -68.53,-27.09 -146.08,-63.73 -203.74,-95.16 -57.65,-31.43 -95.42,-57.65 -129.26,-88.04 -33.85,-30.38 -63.78,-64.93 -86.29,-99.86 -22.52,-34.93 -37.61,-70.24 -46.36,-105.08 -8.76,-34.84 -11.16,-69.22 -10.24,-98.54 1.74,-55.78 39.83,-180.17 54.77,-241.94 -147.34,119.91 -256.48,244.3 -290.92,430.75 -4.54,24.52 -3.51,44.99 -2,67.68 1.52,22.7 3.51,47.63 7.74,73.8 4.23,26.17 10.68,53.59 20.73,82.21 10.05,28.61 23.7,58.4 44.54,91.18 20.86,32.76 48.91,68.5 83.71,102.96 34.83,34.45 76.41,67.63 129.56,101.3z"/>
  <path class="fil2 str0" d="M1024.33 1083.57c92.05,-125.79 198.11,-200.96 353.38,-264.34 444,-181.27 949.66,28.72 1129.41,469.02 22.15,54.26 38.33,109.5 48.82,164.98 196.35,-22.56 305.59,-125.99 279.56,-370.98 -279.78,-592.98 -982.29,-868.1 -1601.6,-615.26 -35.53,14.5 -162.54,87.67 -181.64,111.29 -125.01,154.59 -206.5,380.56 -27.94,505.3z"/>
 </g>
 <g id="Layer_x0020_2">
  <metadata id="CorelCorpID_1Corel-Layer"/>
 </g>
 <g id="__x0023_Layer_x0020_2">
  <metadata id="CorelCorpID_2Corel-Layer"/>
 </g>
</svg>
